[img]http://img838.imageshack.us/img838/5361/theswitchonesheet.jpg[/img]
[CODE]
   The Switch CAM READNFO XViD - IMAGiNE
********************************************************************************************************************

Ripper ...........: IMAGiNE                                        IMDB Rating.......:5.2/10                             
Video Codec.......: XVID                                         Release Date......:23/08/10
Audio Codec.......:MP3                                           Theatre Date......:20/08/10
Audio Bitrate.....:128                                              Runtime.......:1h 36mn
Subtitles.........:NIL                                                 Language..........:ENGLISH
Resolution...... 688 x 256                                      IMDb URL..........:http://www.imdb.com/title/tt0889573/


DETAILS:

Video
ID                               : 0
Format                           : MPEG-4 Visual
Format profile                   : Advanced Simple@L5
Format settings, BVOP            : Yes
Format settings, QPel            : No
Format settings, GMC             : No warppoints
Format settings, Matrix          : Default (MPEG)
Muxing mode                      : Packed bitstream
Codec ID                         : XVID
Codec ID/Hint                    : XviD
Duration                         : 1h 36mn
Bit rate                         : 882 Kbps
Width                            : 688 pixels
Height                           : 256 pixels
Display aspect ratio             : 2.688
Frame rate                       : 25.000 fps
Resolution                       : 24 bits
Colorimetry                      : 4:2:0
Scan type                        : Progressive
Bits/(Pixel*Frame)               : 0.200
Stream size                      : 609 MiB (86%)
Writing library                  : XviD 1.2.1 (UTC 2008-12-04)

Audio
ID                               : 1
Format                           : MPEG Audio
Format version                   : Version 1
Format profile                   : Layer 3
Codec ID                         : 55
Codec ID/Hint                    : MP3
Duration                         : 1h 36mn
Bit rate mode                    : Constant
Bit rate                         : 128 Kbps
Channel(s)                       : 2 channels
Sampling rate                    : 44.1 KHz
Resolution                       : 16 bits
Stream size                      : 88.3 MiB (13%)
Alignment                        : Split accross interleaves
Interleave, duration             : 40 ms (1.00 video frame)
Interleave, preload duration     : 500 ms



SOURCES:

VIDEO:Russian cam ....... Thanks
AUDIO:The Switch 2010 TS XviD-PolishBits   ....... Thanks

NOTES:

IMAGiNE bringing you another release.....The Switch 2010 

Right this is just the russian video cleaned up the best we could.....made it brighter,balance out the colours the best we could,altered
the contrast and sharpeness aswell.
Video is ok for a cam but is overcropped on the top and bottom.
Audio..........now for this we have muxed polishbits "line" ,however to use it sounds a little more like cam audio,but very good cam audio.
Seems to have that echo to it that you get with cams but not on line.
However we could be wrong but this is way we tagged this release CAM READNFO.

Either way enjoy 
[/CODE]
Screens:
[img]http://img265.imageshack.us/img265/3052/vlcsnap422289.png[/img]
[img]http://img412.imageshack.us/img412/7961/vlcsnap423073.png[/img]
[img]http://img814.imageshack.us/img814/976/vlcsnap423251.png[/img]
[img]http://img830.imageshack.us/img830/6659/vlcsnap425430.png[/img]
[img]http://img836.imageshack.us/img836/8137/vlcsnap425642.png[/img]